<svg width="27" height="27" viewBox="0 0 27 27" fill="none" xmlns="http://www.w3.org/2000/svg">
<path d="M25.125 24.0625V11.3125C25.125 11.0796 25.0708 10.85 24.9666 10.6417C24.8625 10.4334 24.7113 10.2522 24.525 10.1125L14.025 2.2375C13.7654 2.04277 13.4496 1.9375 13.125 1.9375C12.8004 1.9375 12.4846 2.04277 12.225 2.2375L1.725 10.1125C1.53871 10.2522 1.3875 10.4334 1.28336 10.6417C1.17922 10.85 1.125 11.0796 1.125 11.3125V24.0625C1.125 24.4603 1.28304 24.8419 1.56434 25.1232C1.84564 25.4045 2.22718 25.5625 2.625 25.5625H8.625C9.02282 25.5625 9.40435 25.4045 9.68566 25.1232C9.96696 24.8419 10.125 24.4603 10.125 24.0625V19.5625C10.125 19.1647 10.283 18.7831 10.5643 18.5018C10.8456 18.2205 11.2272 18.0625 11.625 18.0625H14.625C15.0228 18.0625 15.4044 18.2205 15.6857 18.5018C15.967 18.7831 16.125 19.1647 16.125 19.5625V24.0625C16.125 24.4603 16.283 24.8419 16.5643 25.1232C16.8456 25.4045 17.2272 25.5625 17.625 25.5625H23.625C24.0228 25.5625 24.4044 25.4045 24.6857 25.1232C24.967 24.8419 25.125 24.4603 25.125 24.0625Z" stroke="#A1A1A1" stroke-width="2" stroke-linecap="round" stroke-linejoin="round"/>
</svg>
