<svg width="27" height="27" viewBox="0 0 27 27" fill="none" xmlns="http://www.w3.org/2000/svg">
<path d="M1.875 22.75C1.875 21.1587 2.50714 19.6326 3.63236 18.5074C4.75758 17.3821 6.2837 16.75 7.875 16.75H19.875C21.4663 16.75 22.9924 17.3821 24.1176 18.5074C25.2429 19.6326 25.875 21.1587 25.875 22.75C25.875 23.5456 25.5589 24.3087 24.9963 24.8713C24.4337 25.4339 23.6706 25.75 22.875 25.75H4.875C4.07935 25.75 3.31629 25.4339 2.75368 24.8713C2.19107 24.3087 1.875 23.5456 1.875 22.75Z" stroke="#A1A1A1" stroke-width="2.25" stroke-linejoin="round"/>
<path d="M13.875 10.75C16.3603 10.75 18.375 8.73528 18.375 6.25C18.375 3.76472 16.3603 1.75 13.875 1.75C11.3897 1.75 9.375 3.76472 9.375 6.25C9.375 8.73528 11.3897 10.75 13.875 10.75Z" stroke="#A1A1A1" stroke-width="2.25"/>
</svg>
