<svg width="28" height="28" viewBox="0 0 28 28" fill="none" xmlns="http://www.w3.org/2000/svg">
<path d="M9.48125 19.4875L16.2987 17.53C16.7487 17.395 17.1371 17.1641 17.4638 16.8374C17.7905 16.5107 18.0209 16.1228 18.155 15.6737L20.1125 8.85625C20.18 8.60875 20.1183 8.38915 19.9275 8.19745C19.7367 8.00575 19.5171 7.9441 19.2687 8.0125L12.4512 9.97C12.0012 10.105 11.6133 10.3358 11.2875 10.6625C10.9617 10.9892 10.7309 11.3771 10.595 11.8262L8.6375 18.6437C8.57 18.8912 8.6321 19.1108 8.8238 19.3025C9.0155 19.4942 9.23465 19.5559 9.48125 19.4875ZM14.375 15.775C13.8125 15.775 13.3346 15.5783 12.9413 15.185C12.548 14.7917 12.3509 14.3134 12.35 13.75C12.3491 13.1866 12.5462 12.7087 12.9413 12.3163C13.3364 11.9239 13.8143 11.7268 14.375 11.725C14.9357 11.7232 15.414 11.9203 15.81 12.3163C16.206 12.7123 16.4027 13.1902 16.4 13.75C16.3973 14.3098 16.2006 14.7881 15.81 15.185C15.4194 15.5819 14.9411 15.7786 14.375 15.775ZM14.375 27.25C12.5075 27.25 10.7525 26.8954 9.11 26.1862C7.4675 25.477 6.03875 24.5153 4.82375 23.3012C3.60875 22.0871 2.6471 20.6584 1.9388 19.015C1.2305 17.3716 0.875902 15.6166 0.875002 13.75C0.874102 11.8834 1.2287 10.1284 1.9388 8.485C2.6489 6.8416 3.61055 5.41285 4.82375 4.19875C6.03695 2.98465 7.4657 2.023 9.11 1.3138C10.7543 0.6046 12.5093 0.25 14.375 0.25C16.2407 0.25 17.9957 0.6046 19.64 1.3138C21.2843 2.023 22.713 2.98465 23.9262 4.19875C25.1394 5.41285 26.1015 6.8416 26.8125 8.485C27.5235 10.1284 27.8777 11.8834 27.875 13.75C27.8723 15.6166 27.5177 17.3716 26.8112 19.015C26.1047 20.6584 25.143 22.0871 23.9262 23.3012C22.7094 24.5153 21.2807 25.4774 19.64 26.1875C17.9993 26.8976 16.2443 27.2518 14.375 27.25ZM14.375 24.55C17.3675 24.55 19.9158 23.4983 22.02 21.395C24.1242 19.2917 25.1759 16.7434 25.175 13.75C25.1741 10.7566 24.1224 8.20825 22.02 6.10495C19.9176 4.00165 17.3693 2.95 14.375 2.95C11.3807 2.95 8.83235 4.0021 6.72995 6.1063C4.62755 8.2105 3.5759 10.7584 3.575 13.75C3.5741 16.7416 4.6262 19.2899 6.7313 21.395C8.8364 23.5001 11.3843 24.5518 14.375 24.55Z" fill="#A1A1A1"/>
</svg>
