<svg width="16" height="17" viewBox="0 0 16 17" fill="none" xmlns="http://www.w3.org/2000/svg">
<path d="M2 5.16667V3.83333C2 3.47971 2.14048 3.14057 2.39052 2.89052C2.64057 2.64048 2.97971 2.5 3.33333 2.5H4.66667M11.3333 2.5H12.6667C13.0203 2.5 13.3594 2.64048 13.6095 2.89052C13.8595 3.14057 14 3.47971 14 3.83333V5.16667M14 11.8333V13.1667C14 13.5203 13.8595 13.8594 13.6095 14.1095C13.3594 14.3595 13.0203 14.5 12.6667 14.5H11.3333M4.66667 14.5H3.33333C2.97971 14.5 2.64057 14.3595 2.39052 14.1095C2.14048 13.8594 2 13.5203 2 13.1667V11.8333M4.66667 8.5H11.3333" stroke="#71717A" stroke-width="1.6" stroke-linecap="round" stroke-linejoin="round"/>
</svg>
